<?xml version="1.0" standalone="no"?>
<!DOCTYPE svg PUBLIC "-//W3C//DTD SVG 20010904//EN"
 "http://www.w3.org/TR/2001/REC-SVG-20010904/DTD/svg10.dtd">
<svg version="1.0" xmlns="http://www.w3.org/2000/svg"
 width="2816.000000pt" height="1536.000000pt" viewBox="0 0 2816.000000 1536.000000"
 preserveAspectRatio="xMidYMid meet">

<g transform="translate(0.000000,1536.000000) scale(0.100000,-0.100000)"
fill="#000000" stroke="none">
<path d="M16408 12563 c-110 -91 -200 -237 -232 -373 -20 -83 -20 -256 -1
-337 50 -213 209 -405 400 -486 207 -87 443 -73 625 38 74 45 130 91 171 140
29 35 26 34 -22 -11 -30 -29 -60 -49 -68 -47 -8 3 -11 1 -7 -5 3 -6 -1 -9 -11
-7 -62 13 -73 17 -68 25 4 6 11 7 17 4 6 -4 8 -2 4 4 -8 13 -55 1 -99 -27 -76
-48 -118 -60 -210 -65 -115 -5 -206 13 -300 61 -82 41 -118 65 -169 111 -22
21 -41 31 -49 27 -7 -5 -10 -4 -5 3 3 6 -10 38 -30 72 -19 33 -37 71 -38 83
-1 12 -8 32 -15 45 -8 15 -9 28 -2 40 6 9 11 12 11 5 0 -6 8 -14 18 -16 16 -4
16 -5 0 -6 -10 0 -18 -6 -18 -13 0 -6 3 -9 6 -5 8 8 36 -21 53 -54 63 -127
229 -254 385 -295 159 -43 336 15 487 159 64 62 127 137 114 137 -3 0 1 7 9
16 20 20 44 102 54 187 34 280 -143 536 -428 621 -69 21 -204 21 -284 0 -33
-9 -87 -29 -118 -46 -84 -45 -215 -177 -249 -252 -21 -45 -34 -30 -29 32 2 25
-28 42 -39 23 -8 -12 -7 -32 4 -109 4 -30 3 -42 -4 -37 -6 3 -11 2 -11 -4 0
-5 6 -12 13 -14 9 -4 9 -6 0 -6 -7 -1 -10 -8 -6 -18 4 -11 3 -14 -6 -9 -6 4
-11 13 -10 19 1 7 1 37 0 67 -2 51 -3 53 -16 36 -20 -27 -19 -5 2 41 34 74
113 181 174 237 76 68 74 73 -3 9z m556 -28 c72 -19 180 -75 233 -120 164
-140 222 -432 123 -613 -12 -22 -18 -27 -14 -13 4 17 3 21 -7 16 -9 -6 -11 -3
-7 11 4 14 0 20 -12 20 -10 0 -16 -6 -13 -13 7 -17 -14 -17 -20 0 -4 9 -8 8
-16 -3 -6 -8 -11 -12 -11 -8 0 3 -3 14 -7 23 -5 14 -2 16 18 10 22 -7 22 -7 6
10 -17 17 -19 17 -32 -1 -7 -11 -17 -15 -21 -11 -5 4 -2 12 5 16 9 6 10 11 3
15 -6 4 -9 13 -6 21 4 9 -1 13 -15 12 -14 -1 -21 -8 -21 -22 0 -16 2 -17 10
-5 8 13 10 13 10 -1 0 -23 -11 -30 -27 -18 -9 8 -13 8 -13 1 0 -6 9 -14 20
-17 11 -3 20 -11 20 -16 0 -6 -4 -7 -10 -4 -5 3 -10 2 -10 -4 0 -5 3 -11 8
-14 4 -2 1 -2 -6 0 -8 1 -20 3 -28 3 -8 0 -14 5 -14 11 0 5 3 8 8 6 9 -7 8
106 -2 122 -4 6 -5 18 -2 26 3 8 0 15 -7 15 -14 0 -40 37 -33 48 3 5 1 14 -5
22 -7 12 -9 11 -9 -5 -1 -19 -2 -19 -14 -3 -7 10 -16 15 -19 12 -3 -3 -16 2
-30 11 -14 8 -29 15 -33 14 -19 -5 -63 14 -57 24 3 6 1 7 -5 3 -14 -8 -81 8
-105 27 -17 12 -17 14 3 40 24 30 17 36 -12 10 -10 -9 -18 -27 -18 -39 0 -29
29 -45 124 -68 143 -35 198 -86 204 -190 3 -56 1 -65 -28 -104 -30 -42 -94
-81 -132 -82 -15 0 -18 -9 -18 -56 l0 -55 -52 3 -53 3 -3 48 c-2 31 -8 47 -16
47 -32 0 -148 43 -172 63 l-26 23 33 52 c17 29 34 52 36 52 3 0 18 -9 33 -20
16 -11 57 -27 92 -36 78 -21 142 -8 160 31 20 43 -19 71 -139 100 -40 9 -92
30 -117 45 -62 40 -79 77 -74 159 4 65 4 65 -10 31 -8 -19 -15 -52 -16 -72 -1
-25 -6 -38 -15 -38 -7 0 -11 6 -8 13 3 8 1 20 -4 28 -7 11 -9 11 -9 1 0 -7 -5
-10 -10 -7 -6 4 -7 11 -4 17 4 6 -2 6 -15 -1 -14 -8 -21 -8 -21 -1 0 5 5 10
12 10 6 0 9 3 6 6 -4 3 -21 -2 -38 -11 -27 -14 -34 -15 -41 -3 -7 11 -11 10
-19 -2 -13 -20 -13 -4 1 21 9 18 7 19 -18 16 -15 -3 -27 -10 -25 -16 1 -6 -3
-11 -8 -11 -15 0 -4 83 15 121 39 74 132 164 215 209 126 67 241 84 354 55z
m-694 -399 c0 -3 -4 -8 -10 -11 -5 -3 -10 -1 -10 4 0 6 5 11 10 11 6 0 10 -2
10 -4z m312 -78 c-7 -7 -12 -8 -12 -2 0 14 12 26 19 19 2 -3 -1 -11 -7 -17z
m163 -128 c-4 -7 6 -9 29 -7 24 3 36 0 36 -8 0 -16 -72 -4 -78 13 -2 6 1 12 8
12 6 0 8 -5 5 -10z m-68 -16 c-3 -3 -12 -4 -19 -1 -8 3 -5 6 6 6 11 1 17 -2
13 -5z m209 -20 c13 -4 30 -1 37 4 10 8 13 6 14 -8 1 -10 -6 -25 -15 -32 -14
-11 -15 -10 -8 6 7 19 6 19 -14 1 -11 -10 -20 -13 -20 -6 0 6 -11 17 -25 23
-27 12 -35 34 -9 24 9 -3 27 -9 40 -12z m244 -110 c0 -8 -5 -12 -10 -9 -6 4
-8 11 -5 16 9 14 15 11 15 -7z m60 -334 c0 -5 -2 -10 -4 -10 -3 0 -8 5 -11 10
-3 6 -1 10 4 10 6 0 11 -4 11 -10z"/>
<path d="M16830 12212 c0 -6 5 -14 10 -17 6 -3 10 -1 10 5 0 14 31 9 49 -8 10
-9 16 -10 21 -3 4 8 12 6 26 -4 10 -8 27 -15 37 -15 9 0 17 -4 17 -9 0 -14 52
-23 63 -12 8 8 7 11 -2 11 -9 0 -11 8 -7 28 l6 27 -15 -26 -14 -26 -48 24
c-54 26 -153 43 -153 25z"/>
<path d="M16450 12166 c0 -8 5 -18 10 -21 6 -3 10 3 10 14 0 12 -4 21 -10 21
-5 0 -10 -6 -10 -14z"/>
<path d="M16810 12156 c0 -2 7 -7 16 -10 8 -3 12 -2 9 4 -6 10 -25 14 -25 6z"/>
<path d="M16850 12140 c0 -5 5 -10 10 -10 6 0 10 5 10 10 0 6 -4 10 -10 10 -5
0 -10 -4 -10 -10z"/>
<path d="M17085 12031 c-3 -6 3 -9 14 -8 11 0 17 5 15 9 -7 11 -22 10 -29 -1z"/>
<path d="M17110 12006 c0 -2 7 -7 16 -10 8 -3 12 -2 9 4 -6 10 -25 14 -25 6z"/>
<path d="M17138 11953 c7 -3 16 -2 19 1 4 3 -2 6 -13 5 -11 0 -14 -3 -6 -6z"/>
<path d="M17175 11951 c-3 -5 -1 -12 5 -16 5 -3 10 1 10 9 0 18 -6 21 -15 7z"/>
<path d="M17201 11927 c2 -1 11 -8 21 -15 12 -10 18 -10 24 -1 4 7 3 9 -4 5
-6 -3 -13 -2 -17 4 -3 5 -11 10 -17 10 -6 0 -9 -1 -7 -3z"/>
<path d="M13883 12583 c10 -9 67 -10 67 0 0 4 -16 7 -37 7 -20 0 -33 -3 -30
-7z"/>
<path d="M13998 12583 c7 -3 16 -2 19 1 4 3 -2 6 -13 5 -11 0 -14 -3 -6 -6z"/>
<path d="M14048 12583 c12 -2 32 -2 45 0 12 2 2 4 -23 4 -25 0 -35 -2 -22 -4z"/>
<path d="M13902 12511 c77 -86 175 -250 219 -367 44 -116 61 -180 120 -439 22
-99 52 -214 66 -255 124 -366 363 -616 720 -754 169 -66 472 -136 585 -136 43
0 42 -11 12 140 -52 261 -200 559 -400 806 -118 146 -397 410 -474 448 -17 8
9 -15 84 -75 37 -30 44 -39 28 -39 -11 0 -22 7 -26 15 -7 20 -26 19 -26 -1 0
-9 5 -12 12 -8 6 4 8 3 4 -4 -9 -15 21 -41 44 -37 24 5 25 -1 6 -21 -19 -18
-26 -18 -26 1 0 8 -4 15 -10 15 -5 0 -10 -6 -10 -14 0 -8 -4 -18 -10 -21 -6
-4 -7 2 -1 18 7 18 5 27 -8 37 -10 7 -17 22 -16 34 2 16 -3 22 -18 24 -12 0
-17 -2 -12 -6 15 -10 12 -38 -4 -34 -7 1 -10 -2 -6 -7 3 -6 12 -8 19 -5 8 3
17 1 21 -5 9 -16 -31 -13 -66 4 -19 10 -28 12 -27 4 2 -6 -3 -14 -11 -17 -10
-3 -12 0 -8 14 7 18 6 18 -8 0 -8 -11 -18 -17 -21 -13 -4 4 -14 1 -22 -6 -13
-10 -14 -9 -4 9 6 12 9 24 5 27 -3 4 0 13 6 21 8 10 9 16 1 21 -6 4 -9 1 -8
-6 2 -6 -2 -13 -8 -16 -14 -5 -26 34 -13 41 5 2 5 4 -2 3 -6 -2 -10 -6 -10
-10 0 -3 -7 -23 -15 -42 -8 -20 -12 -41 -8 -47 4 -7 3 -8 -4 -4 -7 4 -9 19 -5
36 3 19 1 30 -5 30 -6 0 -9 -7 -6 -15 5 -11 2 -13 -9 -9 -13 5 -14 10 -5 24 7
10 18 16 26 12 10 -4 13 -1 8 7 -5 7 -14 10 -22 7 -16 -6 -64 13 -64 25 0 5 6
6 13 3 8 -3 13 3 13 14 0 11 -5 19 -11 19 -32 0 -45 4 -40 13 3 6 1 10 -5 10
-7 0 -10 -7 -6 -15 4 -10 -1 -15 -15 -15 -11 0 -18 4 -15 9 8 12 -18 21 -34
11 -6 -4 -21 -5 -31 -3 -15 4 -17 8 -8 19 9 11 9 14 0 14 -7 0 -9 5 -5 13 4 7
3 9 -2 4 -9 -9 -10 -13 -13 -42 0 -8 -5 -15 -11 -15 -5 0 -7 8 -4 18 5 14 4
14 -4 2 -6 -8 -9 -17 -6 -21 2 -4 -2 -9 -10 -12 -8 -3 -13 1 -12 8 0 8 -3 13
-9 12 -5 -1 -9 -6 -7 -10 1 -5 -3 -5 -9 -2 -6 4 -9 15 -6 24 2 9 -2 22 -10 29
-7 7 -13 17 -13 23 0 6 7 3 16 -6 9 -9 19 -14 21 -11 3 3 -2 12 -11 22 -12 12
-14 20 -6 29 8 10 7 14 -7 18 -15 4 -14 5 3 6 12 0 25 8 28 17 5 13 4 14 -7 6
-10 -9 -14 -8 -14 3 0 8 4 15 9 15 5 0 6 5 3 10 -4 6 -1 18 7 27 9 12 9 15 1
9 -8 -4 -23 4 -39 19 -22 22 -24 29 -13 36 10 6 10 9 2 9 -7 0 -13 5 -13 11 0
5 5 7 12 3 7 -5 8 -3 4 5 -5 7 -15 10 -24 6 -8 -3 -19 0 -24 7 -5 9 -8 3 -8
-16 0 -22 4 -27 16 -22 14 5 15 4 4 -9 -7 -9 -10 -18 -7 -22 4 -3 2 -13 -5
-20 -9 -11 -9 -16 1 -23 8 -4 9 -9 3 -11 -11 -4 -15 -22 -13 -54 1 -17 3 -18
12 -5 8 12 10 9 6 -12 -3 -19 0 -25 10 -21 7 3 13 0 13 -7 0 -6 -4 -8 -10 -5
-5 3 -10 1 -10 -4 0 -6 5 -11 10 -11 6 0 8 -12 6 -26 -7 -39 -13 -39 -20 -1
-3 19 -17 62 -31 96 -16 43 -20 59 -10 51 16 -14 18 -6 6 25 -5 11 -4 31 1 44
7 19 6 22 -5 13 -10 -8 -16 -6 -25 9 -7 11 -16 17 -21 15 -5 -3 -32 34 -62 82
-29 48 -61 98 -71 111 -24 31 -14 41 11 12 10 -12 21 -18 23 -14 3 4 3 2 2 -4
-4 -17 6 -43 16 -43 4 0 8 6 7 13 -1 35 4 57 14 57 5 0 7 -5 3 -12 -4 -7 -3
-8 4 -4 26 16 11 28 -27 22 -39 -5 -40 -4 -37 22 3 22 0 27 -19 27 -16 0 -22
-5 -20 -17 6 -27 -4 -22 -46 22 -59 62 -57 47 3 -19z m226 -326 c-3 -3 -9 2
-12 12 -6 14 -5 15 5 6 7 -7 10 -15 7 -18z m122 -45 c0 -5 -4 -10 -10 -10 -5
0 -10 5 -10 10 0 6 5 10 10 10 6 0 10 -4 10 -10z m-23 -162 c-3 -8 -6 -5 -6 6
-1 11 2 17 5 13 3 -3 4 -12 1 -19z m183 -51 c0 -23 -2 -22 -19 10 -10 19 -9
22 4 17 8 -4 15 -15 15 -27z m70 3 c0 -11 -4 -20 -9 -20 -5 0 -7 9 -4 20 3 11
7 20 9 20 2 0 4 -9 4 -20z m-235 0 c3 -5 1 -10 -4 -10 -6 0 -11 5 -11 10 0 6
2 10 4 10 3 0 8 -4 11 -10z m205 0 c0 -5 -5 -10 -11 -10 -5 0 -7 5 -4 10 3 6
8 10 11 10 2 0 4 -4 4 -10z m-160 -10 c0 -5 -2 -10 -4 -10 -3 0 -8 5 -11 10
-3 6 -1 10 4 10 6 0 11 -4 11 -10z m-20 -20 c0 -5 -4 -10 -10 -10 -5 0 -10 5
-10 10 0 6 5 10 10 10 6 0 10 -4 10 -10z m180 -25 c0 -5 -5 -3 -10 5 -5 8 -10
20 -10 25 0 6 5 3 10 -5 5 -8 10 -19 10 -25z m37 10 c0 -8 -5 -15 -10 -15 -5
0 -7 -7 -4 -15 4 -8 1 -17 -5 -21 -7 -4 -8 -3 -4 4 4 7 2 12 -4 12 -6 0 -4 10
6 25 19 29 21 30 21 10z m-202 -25 c3 -5 1 -10 -4 -10 -6 0 -11 5 -11 10 0 6
2 10 4 10 3 0 8 -4 11 -10z m333 -13 c10 -12 -6 -47 -22 -47 -12 0 -6 30 7 31
10 0 10 2 0 6 -15 5 -18 23 -4 23 5 0 13 -6 19 -13z m337 -85 c-5 -6 -75 63
-75 74 0 4 18 -9 40 -31 22 -21 38 -41 35 -43z m-444 41 c-12 -20 -14 -14 -5
12 4 9 9 14 11 11 3 -2 0 -13 -6 -23z m205 2 c-3 -8 -1 -15 4 -15 6 0 10 -8
10 -18 0 -10 5 -23 11 -29 7 -7 6 -12 -6 -17 -9 -3 -13 -2 -10 3 3 5 0 21 -6
35 -10 21 -17 24 -45 20 -19 -2 -34 0 -34 5 0 6 11 8 25 5 14 -2 30 2 37 11
17 19 22 19 14 0z m-175 -22 c13 -16 12 -17 -3 -4 -17 13 -22 21 -14 21 2 0
10 -8 17 -17z m89 -3 c0 -5 -4 -10 -10 -10 -5 0 -10 5 -10 10 0 6 5 10 10 10
6 0 10 -4 10 -10z m160 -23 c0 -3 -9 -3 -19 0 -12 3 -17 11 -14 19 4 11 7 11
19 -1 8 -7 14 -16 14 -18z m-80 -11 c0 -3 -4 -8 -10 -11 -5 -3 -10 -1 -10 4 0
6 5 11 10 11 6 0 10 -2 10 -4z m133 -9 c3 -8 2 -20 -3 -26 -5 -9 -7 -4 -7 13
0 29 2 32 10 13z m260 -116 l107 -109 -23 -26 c-17 -20 -24 -23 -32 -13 -5 7
-19 11 -30 9 -16 -2 -17 -1 -5 7 13 9 13 12 1 23 -12 11 -13 10 -7 -2 4 -8 0
-6 -8 4 -13 16 -16 17 -16 4 0 -9 -7 -19 -16 -22 -9 -3 -12 -11 -8 -18 6 -10
5 -11 -8 -1 -8 7 -18 10 -21 6 -4 -3 -13 0 -22 7 -13 11 -14 10 -9 -4 3 -9 2
-16 -3 -16 -5 0 -9 9 -10 20 -1 11 3 20 9 20 6 0 9 3 6 6 -4 3 -16 1 -27 -6
-17 -9 -22 -8 -27 4 -3 9 -12 12 -22 8 -14 -5 -15 -4 -2 10 8 9 18 14 23 11 4
-2 7 -2 7 1 0 3 -9 10 -20 16 -16 9 -18 8 -14 -5 4 -8 3 -15 0 -15 -4 0 -11
11 -16 25 -7 17 -15 23 -27 19 -17 -5 -17 -5 0 6 9 6 21 9 26 5 11 -6 9 14 -4
35 -5 9 0 8 13 -4 12 -10 19 -23 16 -27 -3 -5 0 -9 6 -9 6 0 10 8 8 18 -2 9 2
16 9 15 7 -2 10 4 6 12 -5 13 -7 13 -19 -2 -7 -10 -14 -13 -14 -7 0 6 7 17 15
24 13 11 13 14 -2 27 -16 13 -16 13 4 4 12 -6 24 -16 27 -23 5 -10 7 -11 12 0
3 6 10 10 15 6 5 -3 9 -1 9 5 0 5 -9 13 -20 16 -22 7 -27 25 -7 26 6 0 3 4 -8
9 -20 8 -20 9 1 9 14 1 56 -35 127 -108z m-213 69 c0 -17 -2 -19 -14 -8 -10 9
-11 15 -2 20 16 11 16 10 16 -12z m-585 -30 c3 -5 1 -10 -4 -10 -6 0 -11 5
-11 10 0 6 2 10 4 10 3 0 8 -4 11 -10z m576 -19 c6 10 9 8 9 -8 0 -13 -4 -23
-10 -23 -5 0 -10 2 -10 4 0 2 -2 10 -3 18 -2 7 -2 9 1 4 2 -4 8 -2 13 5z
m-566 -51 c-3 -5 -1 -20 5 -34 6 -16 6 -27 0 -31 -6 -4 -11 4 -11 17 -1 13 -3
33 -4 45 -1 12 2 20 7 17 4 -3 6 -9 3 -14z m581 -29 c-4 -5 0 -11 6 -14 7 -2
9 -8 5 -13 -4 -5 -12 -2 -17 6 -13 20 -12 30 1 30 5 0 8 -4 5 -9z m65 -94
c-10 -9 -11 -8 -5 6 3 10 9 15 12 12 3 -3 0 -11 -7 -18z m139 13 c0 -5 -4 -10
-10 -10 -5 0 -10 5 -10 10 0 6 5 10 10 10 6 0 10 -4 10 -10z m-70 -20 c0 -5
-5 -10 -11 -10 -5 0 -7 5 -4 10 3 6 8 10 11 10 2 0 4 -4 4 -10z m60 -10 c0 -5
-4 -10 -10 -10 -5 0 -10 5 -10 10 0 6 5 10 10 10 6 0 10 -4 10 -10z m-25 -30
c3 -5 1 -10 -4 -10 -6 0 -11 5 -11 10 0 6 2 10 4 10 3 0 8 -4 11 -10z m240
-62 c5 2 10 -1 12 -7 1 -8 0 -7 -4 0 -3 7 -8 8 -12 2 -3 -6 -15 -1 -26 10 -11
11 -14 16 -6 12 11 -6 13 -4 8 7 -3 9 -3 19 1 23 4 4 9 -6 12 -22 3 -15 10
-27 15 -25z m-30 -18 c3 -5 1 -10 -4 -10 -6 0 -11 5 -11 10 0 6 2 10 4 10 3 0
8 -4 11 -10z m60 -21 c11 -16 1 -19 -13 -3 -7 8 -8 14 -3 14 5 0 13 -5 16 -11z
m-55 -9 c0 -5 -2 -10 -4 -10 -3 0 -8 5 -11 10 -3 6 -1 10 4 10 6 0 11 -4 11
-10z m90 -35 c11 -13 10 -14 -4 -9 -9 3 -16 10 -16 15 0 13 6 11 20 -6z m25
-49 c20 -30 30 -80 15 -71 -6 4 -9 13 -6 20 6 16 -17 38 -29 27 -5 -4 -5 -1
-1 6 4 7 2 19 -4 27 -9 10 -9 15 -1 15 6 0 18 -11 26 -24z m83 -141 c18 -38
19 -45 6 -45 -8 0 -12 4 -9 10 3 6 -1 7 -9 4 -9 -3 -16 -1 -16 5 0 6 5 11 11
11 5 0 7 5 4 10 -4 6 -9 8 -13 6 -4 -2 -7 7 -7 20 0 35 8 30 33 -21z"/>
<path d="M15070 11620 c0 -5 5 -10 11 -10 5 0 7 5 4 10 -3 6 -8 10 -11 10 -2
0 -4 -4 -4 -10z"/>
<path d="M15050 11591 c0 -11 5 -23 10 -26 6 -3 10 1 10 10 0 9 5 13 10 10 6
-3 10 -2 10 3 0 8 -22 22 -36 22 -2 0 -4 -9 -4 -19z"/>
<path d="M15092 11576 c-9 -21 -8 -24 13 -29 16 -3 22 0 17 7 -3 6 -7 17 -8
24 -4 24 -10 23 -22 -2z"/>
<path d="M14970 11581 c0 -5 5 -13 10 -16 6 -3 10 -2 10 4 0 5 -4 13 -10 16
-5 3 -10 2 -10 -4z"/>
<path d="M14965 11531 c-3 -7 -3 -16 0 -19 3 -3 5 0 5 6 0 7 9 12 20 12 11 0
20 4 20 8 0 14 -39 8 -45 -7z"/>
<path d="M15050 11520 c-6 -11 -8 -20 -6 -20 3 0 10 9 16 20 6 11 8 20 6 20
-3 0 -10 -9 -16 -20z"/>
<path d="M14638 12533 c6 -2 18 -2 25 0 6 3 1 5 -13 5 -14 0 -19 -2 -12 -5z"/>
<path d="M14688 12523 c6 -2 18 -2 25 0 6 3 1 5 -13 5 -14 0 -19 -2 -12 -5z"/>
<path d="M14012 12505 c-10 -12 -10 -15 2 -15 7 0 16 7 20 15 7 19 -5 19 -22
0z"/>
<path d="M16290 12380 c0 -5 4 -10 9 -10 6 0 13 5 16 10 3 6 -1 10 -9 10 -9 0
-16 -4 -16 -10z"/>
<path d="M14100 12290 c-8 -5 -11 -12 -7 -17 5 -4 12 -1 17 7 7 12 11 10 19
-10 6 -15 10 -19 10 -9 1 23 -21 40 -39 29z"/>
<path d="M14242 12213 c2 -9 9 -18 16 -21 18 -6 15 25 -4 32 -11 4 -14 1 -12
-11z"/>
<path d="M14410 12011 c0 -5 8 -15 18 -22 15 -12 16 -12 5 2 -7 9 -10 19 -6
22 3 4 1 7 -5 7 -7 0 -12 -4 -12 -9z"/>
<path d="M14375 12001 c-3 -5 -1 -12 5 -16 5 -3 10 1 10 9 0 18 -6 21 -15 7z"/>
<path d="M14810 11952 c0 -4 26 -20 58 -37 244 -128 543 -389 704 -616 254
-358 331 -743 233 -1179 -58 -261 -177 -466 -418 -720 -266 -280 -471 -494
-642 -670 -110 -113 -299 -308 -419 -433 -120 -125 -223 -227 -228 -227 -5 0
2 12 16 26 13 15 22 33 19 41 -3 8 -2 13 3 12 22 -4 34 2 34 16 0 8 5 15 10
15 6 0 10 5 10 12 0 6 -3 8 -7 5 -10 -10 -32 13 -27 28 3 7 0 16 -7 21 -7 4
-10 3 -5 -4 3 -5 0 -13 -6 -16 -10 -5 -10 -7 0 -12 20 -10 13 -22 -12 -20 -13
0 -22 4 -19 9 2 4 -1 7 -7 7 -6 0 -8 5 -4 11 4 8 9 7 15 -2 5 -8 9 -9 9 -4 0
6 -4 16 -9 24 -7 10 -15 6 -39 -18 l-30 -32 -8 23 c-4 13 -6 28 -5 33 4 9 8
38 10 59 1 6 7 1 15 -10 8 -10 11 -21 7 -24 -4 -3 -11 -18 -14 -35 -3 -16 -4
-24 -1 -17 3 6 10 10 15 7 5 -4 6 2 2 11 -4 11 -2 15 4 11 6 -4 9 5 7 23 -4
35 11 41 19 8 7 -27 18 -19 21 17 3 18 0 23 -7 16 -8 -8 -16 -6 -29 6 -18 16
-18 16 -12 -3 7 -16 5 -17 -7 -7 -12 10 -21 8 -42 -6 -15 -10 -24 -20 -21 -24
4 -4 13 1 21 11 13 15 13 15 3 -6 -6 -12 -15 -20 -21 -17 -13 9 -11 -9 3 -23
7 -7 9 -12 4 -12 -4 0 -14 7 -23 15 -12 13 -18 13 -31 3 -12 -10 -14 -10 -8 0
4 6 3 12 -3 12 -5 0 -14 -8 -20 -17 -5 -10 -12 -15 -16 -12 -3 4 15 29 41 55
166 175 177 185 186 172 7 -10 8 -10 7 2 -3 20 11 50 23 50 5 0 6 -4 3 -10 -3
-5 -1 -10 5 -10 6 0 8 -5 5 -10 -4 -6 -11 -7 -17 -4 -7 5 -8 2 -3 -5 6 -10 11
-9 23 3 13 13 13 18 2 31 -12 14 -1 28 81 113 142 144 224 232 228 243 2 6
-167 -166 -375 -383 -208 -216 -381 -395 -386 -396 -5 -2 -40 30 -79 72 -39
42 -76 73 -82 69 -5 -3 -7 -2 -4 4 6 9 -104 127 -114 121 -2 -2 -3 -1 -1 1 5
10 -52 60 -61 54 -6 -3 -7 -1 -4 4 4 6 -3 23 -14 37 -15 20 -27 25 -43 21 -16
-5 -18 -4 -6 4 12 9 -6 31 -99 125 -63 63 -119 113 -125 112 -6 -2 -7 -1 -3 2
4 2 3 10 -4 18 -6 8 -16 11 -22 7 -5 -3 -7 -2 -4 4 8 13 -37 56 -48 46 -4 -5
-5 -3 -2 3 3 6 -25 41 -62 78 l-68 68 -124 -128 c-68 -71 -181 -187 -250 -259
-70 -71 -141 -146 -159 -165 -44 -48 -403 -422 -585 -610 -174 -179 -1082
-1128 -1482 -1549 l-271 -286 411 -3 412 -2 80 82 c44 46 200 209 345 363 146
153 321 338 390 410 69 71 240 251 380 400 140 148 361 380 491 515 130 135
265 276 301 315 l66 70 64 -67 c139 -148 773 -788 779 -788 4 0 80 78 169 173
90 94 258 271 374 392 116 121 305 319 421 440 115 121 253 265 306 320 53 55
109 115 124 133 15 18 33 32 39 30 6 -2 129 -124 272 -273 144 -148 269 -277
278 -284 19 -16 5 -30 350 329 77 80 187 195 245 255 58 61 194 202 301 315
107 113 245 257 305 320 183 191 306 320 400 420 194 206 248 260 263 260 8 0
102 -87 209 -192 106 -106 198 -194 203 -196 5 -2 12 14 15 35 3 21 13 67 21
103 7 36 25 127 39 203 14 76 29 157 35 180 5 23 23 116 40 207 17 91 57 302
90 470 91 463 99 521 68 466 -14 -25 -180 -208 -323 -356 -61 -63 -245 -257
-410 -430 -165 -173 -381 -398 -480 -500 -99 -102 -229 -237 -290 -300 -234
-246 -610 -635 -820 -849 -121 -123 -226 -229 -233 -237 -18 -19 -25 -18 -42
5 -7 11 -17 18 -22 15 -4 -3 -8 0 -8 6 0 14 -87 100 -94 93 -3 -4 -6 -1 -6 6
0 7 -36 48 -80 92 -44 44 -80 83 -80 86 0 4 24 31 53 62 29 31 72 80 96 109
25 28 51 52 58 52 7 0 10 6 7 15 -4 9 8 33 28 58 113 137 271 431 342 636 78
222 126 453 142 681 7 96 -1 126 -9 35 -2 -27 -9 -51 -16 -53 -6 -2 -11 -11
-11 -20 0 -15 2 -15 10 -2 18 28 10 -9 -9 -40 -16 -27 -19 -29 -32 -14 -12 15
-14 14 -20 -3 -5 -10 -8 9 -8 47 -1 44 -4 60 -10 50 -6 -8 -7 -18 -5 -22 11
-17 -10 -7 -27 14 -17 19 -25 14 -20 -14 0 -4 -6 -5 -14 -2 -8 4 -15 14 -16
23 0 9 -6 4 -14 -14 -13 -28 -16 -29 -19 -5 -2 15 -26 36 -26 22 0 -7 6 -12
13 -12 9 0 8 -3 -2 -9 -11 -7 -11 -9 0 -13 8 -3 11 -9 7 -13 -11 -11 -28 4
-28 26 0 11 -4 17 -10 14 -14 -9 -12 8 3 24 10 11 10 13 0 7 -7 -4 -13 -5 -13
-3 0 3 -7 41 -15 86 -9 45 -13 87 -9 93 4 7 3 8 -4 4 -7 -4 -12 -2 -12 3 0 6
5 12 10 12 6 1 14 2 19 3 5 0 13 5 18 10 4 5 -1 7 -13 4 -19 -5 -21 -1 -19 56
0 33 -3 67 -8 74 -7 9 -6 11 6 7 8 -4 18 -2 21 4 4 6 14 8 24 5 9 -2 7 1 -5 7
-16 8 -23 21 -23 41 0 35 -22 60 -44 52 -19 -7 -21 -21 -3 -27 9 -3 9 -7 -2
-20 -7 -9 -17 -15 -21 -12 -5 3 -10 1 -12 -5 -1 -5 -21 25 -42 68 -39 77 -181
298 -217 338 -11 11 -19 26 -19 33 0 7 -4 10 -9 6 -6 -3 -15 5 -22 17 -7 13
-37 46 -68 73 -30 28 -82 75 -116 105 -33 30 -82 73 -110 95 -27 22 -52 42
-55 45 -3 3 -27 20 -55 38 -27 17 -56 36 -62 42 -7 6 -24 15 -38 20 -14 5 -25
14 -25 20 0 6 -4 9 -8 6 -4 -2 -31 8 -60 24 -29 15 -52 25 -52 22z m996 -991
c-12 -19 -24 -12 -19 10 4 13 9 17 15 11 6 -6 7 -15 4 -21z m2 -72 c1 -23 0
-40 -2 -38 -8 8 -14 89 -7 84 4 -2 8 -23 9 -46z m183 -367 c-6 -11 -7 -22 -4
-26 3 -3 1 -6 -5 -6 -15 0 -15 15 0 40 16 24 23 18 9 -8z m117 -50 c-15 -38
-23 -40 -39 -9 -11 20 -11 21 4 8 14 -11 18 -10 28 13 17 36 21 27 7 -12z
m-61 -34 c-3 -8 -6 -5 -6 6 -1 11 2 17 5 13 3 -3 4 -12 1 -19z m46 -28 c3 -11
1 -23 -4 -26 -5 -3 -9 4 -9 16 0 12 -4 18 -10 15 -11 -7 -14 8 -4 18 10 10 21
0 27 -23z m-3 -50 c0 -5 -5 -10 -11 -10 -5 0 -7 5 -4 10 3 6 8 10 11 10 2 0 4
-4 4 -10z m0 -30 c0 -5 -2 -10 -4 -10 -3 0 -8 5 -11 10 -3 6 -1 10 4 10 6 0
11 -4 11 -10z m-170 -25 c7 -9 8 -15 2 -15 -5 0 -12 7 -16 15 -3 8 -4 15 -2
15 2 0 9 -7 16 -15z m110 -134 c0 -29 -15 -33 -16 -5 -1 13 2 24 7 24 5 0 9
-9 9 -19z m0 -51 c0 -5 -4 -10 -10 -10 -5 0 -10 5 -10 10 0 6 5 10 10 10 6 0
10 -4 10 -10z m-13 -40 c-3 -11 -1 -18 4 -14 12 7 11 0 -3 -31 -6 -14 -15 -25
-19 -25 -8 0 -4 44 7 78 6 20 17 13 11 -8z m-12 -89 c7 -12 -12 -24 -25 -16
-11 7 -4 25 10 25 5 0 11 -4 15 -9z m1455 1 c0 -4 -16 -22 -35 -41 -19 -18
-35 -29 -35 -24 0 5 11 19 25 31 14 12 25 26 25 32 0 5 5 10 10 10 6 0 10 -4
10 -8z m271 -30 c31 -36 31 -46 1 -18 -18 17 -32 31 -32 33 0 9 18 1 31 -15z
m-4936 -1178 c-11 -8 -28 -21 -37 -29 -10 -8 -18 -12 -18 -8 0 3 -9 -4 -20
-17 -11 -13 -20 -19 -20 -13 0 5 16 24 35 43 19 19 35 30 35 26 0 -5 7 -3 15
4 8 7 12 17 8 24 -3 6 0 5 8 -2 12 -11 11 -16 -6 -28z m548 -342 c4 9 6 9 6 1
2 -20 -16 -24 -30 -5 -13 15 -12 16 3 4 13 -10 17 -10 21 0z m-605 -47 c-12
-14 -25 -25 -29 -25 -10 0 34 50 43 50 5 0 -2 -11 -14 -25z m392 -97 c0 -6 -6
-5 -15 2 -8 7 -15 14 -15 16 0 2 7 1 15 -2 8 -4 15 -11 15 -16z m775 -78 c3
-5 -1 -10 -10 -10 -9 0 -13 5 -10 10 3 6 8 10 10 10 2 0 7 -4 10 -10z m96 -37
c-9 -15 -10 -14 -7 7 6 35 7 37 12 23 3 -7 1 -20 -5 -30z m-401 -11 c0 -15 -2
-15 -10 -2 -13 20 -13 33 0 25 6 -3 10 -14 10 -23z m476 8 c0 -12 -4 -16 -9
-11 -5 5 -6 14 -3 20 10 15 12 14 12 -9z m86 3 c-6 -2 -10 -9 -6 -14 3 -5 -2
-9 -12 -9 -13 0 -14 3 -4 15 7 8 18 15 24 14 7 0 6 -2 -2 -6z m-497 -83 c-10
-16 -28 -12 -21 5 3 10 -1 15 -12 16 -10 0 -12 3 -4 6 6 2 9 10 6 16 -4 7 3 2
15 -11 12 -12 19 -27 16 -32z m445 40 c0 -5 -5 -10 -11 -10 -5 0 -7 5 -4 10 3
6 8 10 11 10 2 0 4 -4 4 -10z m-20 -84 c0 -3 -4 -8 -10 -11 -5 -3 -10 -1 -10
4 0 6 5 11 10 11 6 0 10 -2 10 -4z m-30 -26 c0 -14 -188 -205 -195 -199 -4 5
180 203 193 208 1 1 2 -3 2 -9z"/>
<path d="M14530 11941 c0 -6 6 -11 13 -11 8 0 7 -4 -3 -10 -9 -6 -10 -10 -3
-10 19 0 24 17 8 30 -10 9 -15 9 -15 1z"/>
<path d="M14615 11940 c3 -5 8 -10 11 -10 2 0 4 5 4 10 0 6 -5 10 -11 10 -5 0
-7 -4 -4 -10z"/>
<path d="M14706 11903 c-6 -14 -5 -15 5 -6 7 7 10 15 7 18 -3 3 -9 -2 -12 -12z"/>
<path d="M14655 11860 c-3 -5 -1 -10 4 -10 6 0 11 5 11 10 0 6 -2 10 -4 10 -3
0 -8 -4 -11 -10z"/>
<path d="M15850 11826 c0 -2 8 -10 18 -17 15 -13 16 -12 3 4 -13 16 -21 21
-21 13z"/>
<path d="M17506 11795 c-9 -26 -7 -32 5 -12 6 10 9 21 6 23 -2 3 -7 -2 -11
-11z"/>
<path d="M17481 11742 c-6 -12 -11 -27 -11 -34 1 -7 8 0 16 15 9 16 13 31 11
34 -3 2 -10 -4 -16 -15z"/>
<path d="M17445 11660 c-9 -16 -13 -30 -11 -30 3 0 12 14 21 30 9 17 13 30 11
30 -3 0 -12 -13 -21 -30z"/>
<path d="M15970 11625 c0 -5 5 -17 10 -25 5 -8 10 -10 10 -5 0 6 -5 17 -10 25
-5 8 -10 11 -10 5z"/>
<path d="M17409 11603 c-13 -16 -12 -17 4 -4 9 7 17 15 17 17 0 8 -8 3 -21
-13z"/>
<path d="M16101 11204 c0 -11 3 -14 6 -6 3 7 2 16 -1 19 -3 4 -6 -2 -5 -13z"/>
<path d="M16111 11164 c0 -11 3 -14 6 -6 3 7 2 16 -1 19 -3 4 -6 -2 -5 -13z"/>
<path d="M16122 11090 c0 -14 2 -19 5 -12 2 6 2 18 0 25 -3 6 -5 1 -5 -13z"/>
<path d="M16128 10973 c6 -65 10 -70 11 -15 0 28 -3 52 -7 52 -4 0 -6 -17 -4
-37z"/>
<path d="M15850 10940 c0 -6 7 -10 15 -10 8 0 15 2 15 4 0 2 -7 6 -15 10 -8 3
-15 1 -15 -4z"/>
<path d="M16130 10820 c0 -5 5 -10 11 -10 5 0 7 5 4 10 -3 6 -8 10 -11 10 -2
0 -4 -4 -4 -10z"/>
<path d="M16135 10790 c-3 -5 -1 -10 4 -10 6 0 11 5 11 10 0 6 -2 10 -4 10 -3
0 -8 -4 -11 -10z"/>
<path d="M16130 10759 c0 -5 5 -7 10 -4 6 3 10 8 10 11 0 2 -4 4 -10 4 -5 0
-10 -5 -10 -11z"/>
<path d="M12095 10458 c-8 -23 0 -2066 8 -2074 4 -4 18 3 31 17 12 13 92 98
177 189 85 90 211 223 281 295 l127 130 1 415 0 415 773 -1 c736 -2 777 -3
891 -23 158 -28 274 -68 433 -148 l132 -66 38 34 c21 19 119 119 218 223 170
179 178 189 160 203 -179 133 -502 279 -755 342 -223 55 -188 54 -1393 58
-913 3 -1118 2 -1122 -9z"/>
<path d="M15009 9403 c-13 -16 -12 -17 4 -4 9 7 17 15 17 17 0 8 -8 3 -21 -13z"/>
<path d="M14949 9343 l-34 -38 38 34 c20 19 37 36 37 38 0 8 -8 0 -41 -34z"/>
<path d="M14889 9283 c-13 -16 -12 -17 4 -4 9 7 17 15 17 17 0 8 -8 3 -21 -13z"/>
<path d="M15820 9193 l-95 -98 98 95 c90 88 102 100 94 100 -1 0 -45 -44 -97
-97z"/>
<path d="M14819 9213 l-34 -38 38 34 c34 33 42 41 34 41 -2 0 -19 -17 -38 -37z"/>
<path d="M15660 9146 c0 -2 8 -10 18 -17 15 -13 16 -12 3 4 -13 16 -21 21 -21
13z"/>
<path d="M14729 9113 c-13 -16 -12 -17 4 -4 9 7 17 15 17 17 0 8 -8 3 -21 -13z"/>
<path d="M14630 9015 c-40 -42 -71 -77 -69 -79 2 -2 37 32 77 75 41 44 72 79
70 79 -2 0 -37 -34 -78 -75z"/>
<path d="M15490 8980 c0 -5 5 -10 11 -10 5 0 7 5 4 10 -3 6 -8 10 -11 10 -2 0
-4 -4 -4 -10z"/>
<path d="M15540 8899 c0 -5 5 -7 10 -4 6 3 10 8 10 11 0 2 -4 4 -10 4 -5 0
-10 -5 -10 -11z"/>
<path d="M16335 8528 c-15 -18 -77 -85 -139 -148 -62 -63 -192 -199 -289 -303
-170 -181 -176 -189 -188 -245 -52 -253 -222 -567 -416 -768 -191 -198 -482
-376 -719 -439 -225 -61 -178 -58 -1056 -62 l-808 -4 0 535 c0 294 -3 537 -7
539 -5 2 -62 -52 -127 -122 -66 -69 -203 -213 -305 -319 l-185 -194 2 -496 c1
-274 2 -514 2 -535 l0 -38 1123 4 c1089 3 1126 4 1242 24 304 54 528 132 778
274 330 187 622 477 822 814 177 299 278 605 318 970 20 176 11 545 -13 545
-5 0 -20 -15 -35 -32z"/>
<path d="M14213 8504 c3 -4 -2 -18 -13 -32 -11 -13 -17 -28 -14 -33 3 -5 0 -9
-5 -9 -6 0 -11 -8 -11 -17 1 -16 2 -16 15 1 20 26 19 6 -1 -22 -8 -12 -13 -22
-10 -22 3 0 13 11 22 25 12 19 14 28 5 39 -8 10 -6 18 9 36 18 20 19 40 3 40
-4 0 -3 -3 0 -6z"/>
<path d="M14260 8465 c-7 -9 -8 -15 -2 -15 5 0 12 7 16 15 3 8 4 15 2 15 -2 0
-9 -7 -16 -15z"/>
<path d="M14218 8453 c7 -3 16 -2 19 1 4 3 -2 6 -13 5 -11 0 -14 -3 -6 -6z"/>
<path d="M14140 8440 c-10 -6 -11 -10 -2 -10 6 0 12 -5 12 -10 0 -6 -7 -10
-16 -8 -10 2 -18 -5 -19 -15 -2 -9 1 -15 6 -11 5 3 6 10 3 16 -4 7 -2 8 4 4 6
-4 9 -13 5 -21 -3 -10 -1 -13 9 -10 7 3 14 13 14 23 1 9 4 25 9 35 8 19 -2 22
-25 7z"/>
<path d="M15045 8350 c-49 -54 -188 -200 -307 -323 l-218 -224 -2 -506 c-2
-279 0 -507 4 -507 4 0 56 18 115 40 181 68 319 148 461 267 l52 45 0 654 c0
360 -3 654 -7 654 -5 0 -48 -45 -98 -100z"/>
<path d="M14262 8428 c-7 -7 -18 -13 -24 -13 -6 0 -13 -7 -15 -15 -4 -13 -3
-13 6 0 10 14 16 7 12 -13 -1 -5 3 -6 9 -2 6 3 8 11 5 16 -4 5 -2 9 4 9 19 0
21 -19 4 -36 -15 -15 -15 -17 -2 -12 13 5 15 -1 13 -33 -1 -21 1 -39 6 -39 12
0 18 57 7 75 -5 10 -5 21 2 29 16 19 -9 52 -27 34z m22 -14 c3 -8 2 -12 -4 -9
-6 3 -10 10 -10 16 0 14 7 11 14 -7z"/>
<path d="M14326 8423 c-6 -14 -5 -15 5 -6 7 7 10 15 7 18 -3 3 -9 -2 -12 -12z"/>
<path d="M14379 8411 c9 -6 10 -10 2 -16 -7 -4 -19 -1 -27 6 -12 10 -13 9 -8
-6 6 -14 4 -16 -7 -10 -12 7 -12 6 -1 -7 9 -11 10 -18 2 -23 -5 -3 -10 -1 -10
5 0 6 -5 8 -11 4 -8 -5 -8 -9 1 -14 9 -6 9 -9 -1 -13 -12 -4 -12 -7 0 -18 8
-8 11 -9 8 -4 -3 6 12 28 33 49 37 38 43 56 17 56 -8 0 -8 -3 2 -9z"/>
<path d="M14303 8393 c-15 -5 -17 -23 -4 -23 5 0 11 7 15 15 3 8 4 15 3 14 -1
0 -8 -3 -14 -6z"/>
<path d="M14224 8361 c4 -5 1 -12 -4 -14 -6 -3 -5 -4 2 -3 15 3 23 26 8 26 -6
0 -9 -4 -6 -9z"/>
<path d="M14074 8349 c-4 -7 -3 -9 4 -5 5 3 12 0 15 -6 2 -7 7 -10 11 -7 4 3
0 12 -8 18 -11 9 -16 9 -22 0z"/>
<path d="M14250 8340 c0 -5 5 -10 11 -10 5 0 7 5 4 10 -3 6 -8 10 -11 10 -2 0
-4 -4 -4 -10z"/>
<path d="M14210 8318 c0 -4 4 -8 9 -8 6 0 12 4 15 8 3 5 -1 9 -9 9 -8 0 -15
-4 -15 -9z"/>
<path d="M14180 8265 c-7 -8 -9 -15 -6 -15 4 0 14 7 22 15 9 8 11 15 6 15 -5
0 -15 -7 -22 -15z"/>
<path d="M14180 8230 c-8 -5 -11 -13 -6 -17 5 -4 11 -2 13 5 3 6 10 9 15 6 7
-4 8 -2 4 4 -9 14 -7 14 -26 2z"/>
<path d="M16580 5430 c-38 -12 -66 -31 -91 -59 -139 -156 -3 -381 217 -357 57
6 138 42 166 72 43 49 62 165 37 231 -5 15 -27 45 -47 66 -63 65 -175 84 -282
47z m-44 -56 c-13 -9 -15 -14 -6 -14 7 0 -1 -13 -18 -30 -40 -38 -47 -38 -27
1 20 38 54 73 63 64 4 -4 -2 -13 -12 -21z m354 -152 c0 -13 -12 -22 -22 -16
-10 6 -1 24 13 24 5 0 9 -4 9 -8z"/>
<path d="M8622 4353 l3 -898 198 -3 197 -2 0 522 c0 437 2 520 13 508 17 -18
141 -221 312 -510 70 -118 144 -241 164 -274 l36 -59 105 0 105 0 203 344
c111 189 225 386 254 437 40 71 54 89 59 75 4 -10 7 -245 8 -523 1 -278 5
-508 10 -513 4 -4 93 -6 197 -5 144 2 189 6 188 16 -1 6 -2 410 -2 897 l-2
885 -182 -2 -182 -3 -97 -165 c-54 -91 -112 -187 -129 -215 -17 -27 -79 -133
-139 -235 -210 -355 -283 -472 -291 -463 -12 12 -248 396 -410 668 -79 132
-168 279 -197 328 l-54 87 -185 0 -184 0 2 -897z"/>
<path d="M14443 5242 l-23 -3 0 -895 0 -895 438 2 c240 1 473 6 517 11 230 28
424 111 560 240 103 97 167 191 211 308 48 128 67 251 60 385 -13 226 -74 389
-203 537 -127 147 -282 234 -528 295 -61 15 -128 17 -540 18 -258 0 -480 -1
-492 -3z m925 -352 c100 -24 148 -47 228 -111 133 -105 186 -228 185 -426 -1
-239 -98 -408 -285 -498 -107 -51 -204 -65 -458 -65 l-208 0 0 560 0 560 228
0 c192 0 240 -3 310 -20z m179 -17 c-4 -3 -2 -12 4 -19 8 -10 6 -11 -15 -1
-21 10 -23 13 -8 19 23 9 27 9 19 1z m567 -159 c3 -8 2 -12 -4 -9 -6 3 -10 10
-10 16 0 14 7 11 14 -7z m-1314 -20 c0 -8 -19 -13 -24 -6 -3 5 1 9 9 9 8 0 15
-2 15 -3z m1334 -19 c3 -8 1 -15 -3 -15 -5 0 -11 7 -15 15 -3 8 -1 15 3 15 5
0 11 -7 15 -15z m-1340 -21 c5 -14 4 -15 -9 -4 -17 14 -19 20 -6 20 5 0 12 -7
15 -16z m1346 -594 c0 -5 -5 -10 -11 -10 -5 0 -7 5 -4 10 3 6 8 10 11 10 2 0
4 -4 4 -10z m-580 -204 c0 -3 -4 -8 -10 -11 -5 -3 -10 -1 -10 4 0 6 5 11 10
11 6 0 10 -2 10 -4z m357 -124 c13 -8 11 -10 -40 -51 -15 -12 -17 -12 -11 3 3
9 10 16 16 16 5 0 6 5 3 10 -3 6 2 10 12 10 15 0 16 2 3 10 -8 5 -10 10 -5 10
6 0 16 -4 22 -8z m-72 -72 c3 -5 1 -10 -4 -10 -6 0 -11 5 -11 10 0 6 2 10 4
10 3 0 8 -4 11 -10z m-45 -29 c0 -5 -7 -12 -16 -15 -14 -5 -15 -4 -4 9 14 17
20 19 20 6z m-40 -15 c0 -8 -7 -16 -15 -20 -17 -6 -18 -4 -9 18 8 20 24 21 24
2z"/>
<path d="M11526 4833 c-264 -56 -473 -238 -549 -478 -32 -103 -32 -318 1 -425
34 -110 86 -196 166 -276 115 -115 264 -188 437 -215 96 -15 334 -6 414 16 93
25 197 81 264 142 l61 55 -107 118 -108 117 -40 -34 c-88 -75 -202 -109 -340
-100 -91 6 -192 39 -247 81 -45 34 -106 121 -114 163 l-6 33 523 2 524 3 -2
115 c-2 140 -20 225 -72 328 -98 196 -264 317 -491 358 -97 17 -227 16 -314
-3z m301 -313 c84 -36 172 -142 189 -228 l7 -32 -334 2 -334 3 3 25 c4 44 54
130 99 171 43 40 88 64 148 80 50 14 168 3 222 -21z"/>
<path d="M17886 4825 c-70 -19 -164 -68 -213 -109 -22 -20 -46 -36 -52 -36 -7
0 -11 27 -11 74 l0 73 -182 -1 -183 -1 -3 -688 -2 -688 196 3 196 3 3 390 c2
405 5 439 48 520 20 38 82 98 125 119 47 24 121 31 180 16 76 -18 126 -60 164
-138 l33 -67 5 -420 5 -420 195 0 195 0 0 385 c1 367 2 388 23 456 50 163 193
246 346 200 70 -21 111 -58 148 -133 l33 -68 5 -420 5 -420 193 -2 192 -1 0
455 c0 382 -3 465 -16 526 -43 191 -145 311 -319 377 -46 17 -88 24 -180 28
-197 8 -318 -33 -463 -156 -62 -53 -64 -53 -78 -34 -55 78 -169 152 -275 177
-78 18 -246 18 -313 0z m702 -155 c-23 -22 -47 -40 -53 -40 -5 0 11 18 35 40
24 22 48 40 53 40 5 0 -11 -18 -35 -40z m777 10 c3 -5 1 -10 -4 -10 -6 0 -11
5 -11 10 0 6 2 10 4 10 3 0 8 -4 11 -10z m-899 -76 c-4 -9 -9 -15 -11 -12 -3
3 -3 13 1 22 4 9 9 15 11 12 3 -3 3 -13 -1 -22z m369 -64 c3 -5 -1 -10 -10
-10 -9 0 -13 5 -10 10 3 6 8 10 10 10 2 0 7 -4 10 -10z m-825 -10 c0 -5 -4
-10 -9 -10 -6 0 -13 5 -16 10 -3 6 1 10 9 10 9 0 16 -4 16 -10z m127 -52 c-3
-8 -6 -5 -6 6 -1 11 2 17 5 13 3 -3 4 -12 1 -19z m-382 2 c-3 -5 -12 -10 -18
-10 -7 0 -6 4 3 10 19 12 23 12 15 0z m-52 -38 c-23 -24 -56 -37 -50 -20 2 7
12 12 21 12 9 -1 16 4 16 12 0 8 7 14 15 14 13 0 13 -3 -2 -18z m455 -9 c19
-42 14 -52 -8 -15 -22 36 -24 42 -12 42 4 0 13 -12 20 -27z m932 17 c0 -5 -2
-10 -4 -10 -3 0 -8 5 -11 10 -3 6 -1 10 4 10 6 0 11 -4 11 -10z m-440 -14 c0
-2 -8 -10 -17 -17 -16 -13 -17 -12 -4 4 13 16 21 21 21 13z m475 -16 c3 -5 2
-10 -4 -10 -5 0 -13 5 -16 10 -3 6 -2 10 4 10 5 0 13 -4 16 -10z m-1533 -867
c-6 -2 -10 -9 -6 -14 3 -5 0 -9 -5 -9 -12 0 -14 13 -4 23 3 4 11 7 17 6 6 0 5
-3 -2 -6z"/>
<path d="M12650 4391 c0 -356 3 -455 16 -522 33 -177 127 -305 279 -380 44
-21 104 -44 134 -49 78 -15 226 -12 299 5 82 19 191 75 241 123 l41 39 0 -79
0 -78 193 2 c146 2 192 6 191 16 -1 6 -2 316 -2 687 l-2 675 -200 0 -200 0 0
-377 c0 -409 -5 -453 -53 -536 -93 -158 -328 -196 -451 -73 -77 77 -79 89 -83
516 -2 206 -3 396 -3 423 l0 47 -200 0 -200 0 0 -439z"/>
<path d="M16477 4821 c-2 -3 -3 -312 -2 -686 l1 -680 202 -3 202 -3 -2 687 -3
688 -198 2 c-108 1 -199 -1 -200 -5z"/>
</g>
</svg>
