<?xml version="1.0" standalone="no"?>
<!DOCTYPE svg PUBLIC "-//W3C//DTD SVG 20010904//EN"
 "http://www.w3.org/TR/2001/REC-SVG-20010904/DTD/svg10.dtd">
<svg version="1.0" xmlns="http://www.w3.org/2000/svg"
 width="677.000000pt" height="369.000000pt" viewBox="0 0 677.000000 369.000000"
 preserveAspectRatio="xMidYMid meet">

<g transform="translate(0.000000,369.000000) scale(0.100000,-0.100000)"
fill="#000000" stroke="none">
<path d="M3995 3018 c-11 -6 -32 -22 -47 -35 -14 -14 -30 -25 -35 -24 -4 1 -8
-3 -8 -8 0 -5 -3 -13 -7 -17 -5 -4 -8 -28 -8 -54 0 -114 123 -193 226 -144 48
23 42 36 -7 19 -23 -8 -51 -15 -63 -14 -11 0 -2 6 22 12 46 13 112 69 112 95
0 11 -3 13 -8 6 -4 -6 -18 -14 -32 -18 -18 -5 -21 -5 -10 3 8 5 12 12 9 15 -2
3 -22 -11 -42 -31 l-38 -35 -35 18 c-46 25 -41 49 9 48 20 -1 34 2 31 7 -3 5
-13 9 -23 9 -9 0 -30 13 -46 30 -15 16 -32 27 -36 24 -14 -8 -20 15 -9 36 26
48 114 66 169 34 28 -16 40 -38 65 -114 2 -8 5 -1 5 15 2 89 -118 165 -194
123z m10 -256 c11 -6 15 -12 9 -12 -17 0 -77 43 -82 60 -3 9 8 4 24 -11 16
-15 38 -31 49 -37z"/>
<path d="M3400 2940 c0 -6 6 -8 13 -4 9 5 9 4 0 -6 -12 -13 -7 -40 7 -40 12 0
6 53 -7 58 -7 2 -13 -1 -13 -8z"/>
<path d="M3417 2874 c-7 -14 21 -113 49 -171 38 -79 136 -142 247 -157 34 -4
37 -3 37 19 0 57 -76 193 -109 194 -49 2 -52 4 -46 31 8 35 -24 66 -52 52 -19
-11 -53 5 -53 24 0 5 -11 11 -25 12 -14 1 -25 -4 -25 -11 0 -9 -3 -8 -9 2 -5
7 -11 9 -14 5z"/>
<path d="M4324 2638 c-299 -316 -531 -548 -547 -548 -7 0 -25 13 -39 29 l-26
29 41 63 c52 83 94 176 108 239 9 41 8 53 -5 72 -9 12 -16 19 -16 14 0 -5 -6
-3 -14 3 -11 10 -14 1 -18 -52 -7 -107 -40 -161 -209 -331 -147 -148 -149
-149 -169 -131 -11 10 -23 15 -27 12 -3 -4 0 -7 8 -7 12 0 11 -2 -1 -11 -13
-9 -13 -10 2 -6 9 3 19 -1 22 -9 3 -8 2 -13 -3 -10 -5 3 -11 -3 -14 -14 -4
-17 -8 -18 -36 -7 -27 10 -33 9 -51 -11 -12 -12 -24 -22 -28 -22 -4 0 -52 45
-107 100 l-101 101 -50 -54 c-27 -29 -173 -181 -324 -338 -151 -156 -283 -294
-293 -306 l-18 -21 94 -1 94 -1 208 218 c115 119 228 237 252 262 l44 45 99
-105 99 -105 48 50 c185 196 293 305 300 305 5 0 37 -29 71 -63 l63 -64 113
116 c62 64 157 163 211 221 105 112 124 127 134 114 4 -5 25 -26 47 -46 37
-35 40 -36 41 -16 2 17 33 172 69 336 2 12 3 22 0 22 -2 0 -35 -33 -72 -72z"/>
<path d="M3797 2620 c7 -28 20 -34 18 -8 -1 12 -6 23 -12 25 -7 3 -9 -4 -6
-17z"/>
<path d="M2910 2263 l1 -248 74 79 75 78 0 99 0 99 183 0 c190 0 242 -7 310
-40 l41 -20 49 49 c27 27 47 53 44 58 -10 16 -129 71 -177 82 -25 6 -168 11
-322 11 l-278 0 0 -247z"/>
<path d="M3857 1972 c-42 -42 -77 -84 -77 -92 0 -34 -63 -143 -107 -188 -98
-98 -199 -124 -453 -120 l-155 3 -3 129 -3 130 -74 -74 -75 -74 0 -131 0 -131
278 1 c296 2 332 7 435 54 186 84 302 262 314 479 3 50 4 92 2 92 -3 0 -39
-35 -82 -78z"/>
<path d="M3562 1949 l-73 -76 3 -122 3 -122 62 31 c33 17 66 37 72 44 8 9 11
64 9 167 l-3 154 -73 -76z"/>
<path d="M3967 1282 c-22 -24 -21 -35 1 -55 22 -20 63 -22 80 -5 17 17 15 65
-4 72 -29 11 -61 6 -77 -12z"/>
<path d="M2070 1046 l0 -216 50 0 49 0 3 123 3 122 60 -100 c75 -124 93 -129
142 -45 18 30 46 78 62 105 l30 50 1 -127 0 -128 45 0 45 0 0 215 0 215 -39 0
c-46 0 -46 -1 -136 -157 -41 -71 -63 -99 -70 -92 -5 5 -42 63 -81 127 l-70
117 -47 3 -47 3 0 -215z"/>
<path d="M3470 1045 l0 -215 108 0 c122 0 185 15 237 55 63 48 87 134 64 225
-27 105 -117 150 -301 150 l-108 0 0 -215z m222 136 c39 -2 86 -46 98 -92 15
-56 3 -108 -36 -146 -31 -32 -35 -33 -113 -33 l-81 0 0 133 c0 74 2 136 4 138
4 4 58 4 128 0z"/>
<path d="M2718 1140 c-51 -28 -81 -80 -81 -144 0 -68 23 -109 80 -142 62 -37
152 -39 206 -5 l37 23 -21 29 c-24 34 -19 33 -55 14 -34 -18 -62 -19 -100 -5
-26 10 -53 36 -54 53 0 4 56 7 125 7 l125 0 0 38 c0 49 -37 111 -80 133 -46
25 -133 24 -182 -1z m151 -76 c12 -15 21 -31 21 -35 0 -5 -36 -9 -80 -9 -87 0
-96 7 -58 47 31 33 90 32 117 -3z"/>
<path d="M3040 1048 c0 -125 12 -165 62 -202 36 -25 115 -27 152 -3 23 16 27
16 32 2 4 -10 20 -15 50 -15 l44 0 -2 163 -3 162 -47 3 -48 3 0 -96 c0 -126
-14 -155 -77 -155 -55 0 -63 18 -63 141 l0 109 -50 0 -50 0 0 -112z"/>
<path d="M4161 1152 c-7 -2 -11 -57 -11 -163 l0 -159 45 0 45 0 2 108 c0 59 1
113 1 120 -1 7 1 11 4 8 3 -3 12 1 20 9 21 22 67 18 89 -6 16 -18 19 -37 19
-130 l0 -109 48 0 47 0 -1 103 c-2 113 8 143 50 154 14 3 36 0 50 -8 24 -14
26 -20 29 -99 2 -46 8 -91 15 -99 9 -12 9 -13 0 -7 -9 5 -13 -1 -13 -18 0 -24
3 -26 45 -26 l45 0 0 121 c0 104 -3 126 -20 154 -36 58 -135 71 -194 24 l-25
-20 -29 21 c-42 32 -91 36 -145 12 -40 -18 -46 -18 -49 -5 -3 15 -41 24 -67
15z"/>
<path d="M3967 1098 c1 -29 2 -101 2 -160 l1 -108 40 0 40 0 0 160 0 160 -42
0 -43 0 2 -52z"/>
</g>
</svg>
